<?xml version="1.0" encoding="UTF-8"?>
<svg width="20px" height="18px" viewBox="0 0 20 18" version="1.1" xmlns="http://www.w3.org/2000/svg" xmlns:xlink="http://www.w3.org/1999/xlink">
    <!-- Generator: Sketch 51.2 (57519) - http://www.bohemiancoding.com/sketch -->
    <title>我的未选中</title>
    <desc>Created with Sketch.</desc>
    <defs></defs>
    <g id="Page-1" stroke="none" stroke-width="1" fill="none" fill-rule="evenodd">
        <g id="我的未选中" fill-rule="nonzero">
            <path d="M10,10 C7.23857625,10 5,7.76142375 5,5 C5,2.23857625 7.23857625,0 10,0 C12.7614237,0 15,2.23857625 15,5 C15,7.76142375 12.7614237,10 10,10 Z M10,8 C11.6568542,8 13,6.65685425 13,5 C13,3.34314575 11.6568542,2 10,2 C8.34314575,2 7,3.34314575 7,5 C7,6.65685425 8.34314575,8 10,8 Z" id="Oval-5" fill="#CFCFCF"></path>
            <path d="M2,18 L0,18 C0,14.0282687 4.54240307,11 10,11 C15.4575969,11 20,14.0282687 20,18 L18,18 C18,15.3443143 14.4835286,13 10,13 C5.51647144,13 2,15.3443143 2,18 Z" id="Rectangle-9" fill="#767676"></path>
        </g>
    </g>
</svg>